<svg width="24" height="24" viewBox="0 0 24 24" fill="none" xmlns="http://www.w3.org/2000/svg">
<g clip-path="url(#clip0_338_487)">
<path d="M11.9972 14.9999C13.1018 14.9999 13.9972 14.1044 13.9972 12.9999C13.9972 11.8953 13.1018 10.9999 11.9972 10.9999C10.8926 10.9999 9.99719 11.8953 9.99719 12.9999C9.99719 14.1044 10.8926 14.9999 11.9972 14.9999Z" stroke="#757575" stroke-width="1.5" stroke-linecap="round" stroke-linejoin="round"/>
<path d="M13.4496 11.5501L15.4996 9.50007" stroke="#757575" stroke-width="1.5" stroke-linecap="round" stroke-linejoin="round"/>
<path d="M6.40171 20.0001C4.93986 18.8382 3.87562 17.2503 3.35649 15.4565C2.83735 13.6628 2.88903 11.752 3.50435 9.98888C4.11968 8.22581 5.26818 6.69778 6.7907 5.61657C8.31321 4.53536 10.1343 3.95451 12.0017 3.95451C13.8691 3.95451 15.6902 4.53536 17.2127 5.61657C18.7352 6.69778 19.8837 8.22581 20.4991 9.98888C21.1144 11.752 21.1661 13.6628 20.6469 15.4565C20.1278 17.2503 19.0636 18.8382 17.6017 20.0001H6.40171Z" stroke="#757575" stroke-width="1.5" stroke-linecap="round" stroke-linejoin="round"/>
</g>
<defs>
<clipPath id="clip0_338_487">
<rect width="24" height="24" fill="white"/>
</clipPath>
</defs>
</svg>
