<svg width="20" height="20" viewBox="0 0 20 20" fill="none" xmlns="http://www.w3.org/2000/svg">
<path d="M17.0024 1H7.00244C5.89787 1 5.00244 1.89543 5.00244 3V13C5.00244 14.1046 5.89787 15 7.00244 15H17.0024C18.107 15 19.0024 14.1046 19.0024 13V3C19.0024 1.89543 18.107 1 17.0024 1Z" stroke="#10B90C" stroke-width="1.5" stroke-linecap="round" stroke-linejoin="round"/>
<path d="M15 15V17C15 17.5304 14.7893 18.0392 14.4142 18.4142C14.0391 18.7893 13.5304 19 13 19H3C2.46957 19 1.96086 18.7893 1.58579 18.4142C1.21071 18.0392 1 17.5304 1 17V7.00002C1 6.46958 1.21071 5.96087 1.58579 5.5858C1.96086 5.21073 2.46957 5.00002 3 5.00002H5" stroke="#10B90C" stroke-width="1.5" stroke-linecap="round" stroke-linejoin="round"/>
</svg>
