<svg width="24" height="24" viewBox="0 0 24 24" fill="none" xmlns="http://www.w3.org/2000/svg">
<path d="M9.00146 11C11.2106 11 13.0015 9.20914 13.0015 7C13.0015 4.79086 11.2106 3 9.00146 3C6.79233 3 5.00146 4.79086 5.00146 7C5.00146 9.20914 6.79233 11 9.00146 11Z" stroke="#757575" stroke-width="1.5" stroke-linecap="round" stroke-linejoin="round"/>
<path d="M3 21V19C3 17.9392 3.42143 16.9217 4.17157 16.1716C4.92172 15.4215 5.93913 15 7 15H11C12.0609 15 13.0783 15.4215 13.8284 16.1716C14.5786 16.9217 15 17.9392 15 19V21" stroke="#757575" stroke-width="1.5" stroke-linecap="round" stroke-linejoin="round"/>
<path d="M15.999 11L17.999 13L21.999 9.00002" stroke="#757575" stroke-width="1.5" stroke-linecap="round" stroke-linejoin="round"/>
</svg>
