<svg width="24" height="24" viewBox="0 0 24 24" fill="none" xmlns="http://www.w3.org/2000/svg">
<path d="M5.00012 22V5.11111C5.00012 4.55121 5.22254 4.01424 5.61845 3.61833C6.01436 3.22242 6.55133 3 7.11123 3H17.6668C18.2267 3 18.7637 3.22242 19.1596 3.61833C19.5555 4.01424 19.7779 4.55121 19.7779 5.11111V22L16.6112 19.8889L14.5001 22L12.389 19.8889L10.2779 22L8.16679 19.8889L5.00012 22Z" stroke="#616161" stroke-width="1.5" stroke-linecap="round" stroke-linejoin="round"/>
<path d="M12.3828 6.69427V8.27761M14.494 8.27761H11.8551C11.4351 8.27761 11.0324 8.44442 10.7355 8.74136C10.4385 9.03829 10.2717 9.44102 10.2717 9.86094C10.2717 10.2809 10.4385 10.6836 10.7355 10.9805C11.0324 11.2775 11.4351 11.4443 11.8551 11.4443H12.9106C13.3305 11.4443 13.7333 11.6111 14.0302 11.908C14.3271 12.205 14.494 12.6077 14.494 13.0276C14.494 13.4475 14.3271 13.8503 14.0302 14.1472C13.7333 14.4441 13.3305 14.6109 12.9106 14.6109H10.2717L14.494 8.27761ZM12.3828 14.6109V16.1943V14.6109Z" stroke="#616161" stroke-width="1.5" stroke-linecap="round" stroke-linejoin="round"/>
</svg>
