<svg width="16" height="16" viewBox="0 0 16 16" fill="none" xmlns="http://www.w3.org/2000/svg">
<g clip-path="url(#clip0_142_23344)">
<path d="M1.99996 8.00002C1.99996 4.68631 4.68625 2.00002 7.99996 2.00002C11.3137 2.00002 14 4.68631 14 8.00002C14 11.3137 11.3137 14 7.99996 14H1.99996V8.00002ZM7.99996 0.666687C3.94987 0.666687 0.666626 3.94993 0.666626 8.00002V14.6667C0.666626 15.0349 0.965103 15.3334 1.33329 15.3334H7.99996C12.05 15.3334 15.3333 12.0501 15.3333 8.00002C15.3333 3.94993 12.05 0.666687 7.99996 0.666687ZM4.66663 9.00002C5.21891 9.00002 5.66663 8.55231 5.66663 8.00002C5.66663 7.44774 5.21891 7.00002 4.66663 7.00002C4.11434 7.00002 3.66663 7.44774 3.66663 8.00002C3.66663 8.55231 4.11434 9.00002 4.66663 9.00002ZM7.99996 9.00002C8.55224 9.00002 8.99996 8.55231 8.99996 8.00002C8.99996 7.44774 8.55224 7.00002 7.99996 7.00002C7.44767 7.00002 6.99996 7.44774 6.99996 8.00002C6.99996 8.55231 7.44767 9.00002 7.99996 9.00002ZM12.3333 8.00002C12.3333 8.55231 11.8856 9.00002 11.3333 9.00002C10.781 9.00002 10.3333 8.55231 10.3333 8.00002C10.3333 7.44774 10.781 7.00002 11.3333 7.00002C11.8856 7.00002 12.3333 7.44774 12.3333 8.00002Z" fill="#757575" stroke="white" stroke-width="0.727273" stroke-linecap="round" stroke-linejoin="round"/>
</g>
<defs>
<clipPath id="clip0_142_23344">
<rect width="16" height="16" fill="white"/>
</clipPath>
</defs>
</svg>
